<svg xmlns:xlink="http://www.w3.org/1999/xlink" xmlns="http://www.w3.org/2000/svg" version="1.1" width="1251" height="555"><defs><clipPath id="highcharts-33"><rect rx="0" ry="0" fill="none" x="0" y="0" width="9999" height="555" stroke-width="0.000001"></rect></clipPath><clipPath id="highcharts-34"><rect fill="none" x="0" y="0" width="1178" height="482"></rect></clipPath></defs><rect rx="5" ry="5" fill="#FFFFFF" x="0" y="0" width="1251" height="555" stroke-width="0.000001"></rect><g class="highcharts-grid" ><path fill="none" d="M 74.5 10 L 74.5 492" stroke="#E0E0E0" stroke-width="1"></path><path fill="none" d="M 90.5 10 L 90.5 492" stroke="#E0E0E0" stroke-width="1"></path><path fill="none" d="M 107.5 10 L 107.5 492" stroke="#E0E0E0" stroke-width="1"></path><path fill="none" d="M 123.5 10 L 123.5 492" stroke="#E0E0E0" stroke-width="1"></path><path fill="none" d="M 140.5 10 L 140.5 492" stroke="#E0E0E0" stroke-width="1"></path><path fill="none" d="M 156.5 10 L 156.5 492" stroke="#E0E0E0" stroke-width="1"></path><path fill="none" d="M 173.5 10 L 173.5 492" stroke="#E0E0E0" stroke-width="1"></path><path fill="none" d="M 189.5 10 L 189.5 492" stroke="#E0E0E0" stroke-width="1"></path><path fill="none" d="M 206.5 10 L 206.5 492" stroke="#E0E0E0" stroke-width="1"></path><path fill="none" d="M 222.5 10 L 222.5 492" stroke="#E0E0E0" stroke-width="1"></path><path fill="none" d="M 239.5 10 L 239.5 492" stroke="#E0E0E0" stroke-width="1"></path><path fill="none" d="M 255.5 10 L 255.5 492" stroke="#E0E0E0" stroke-width="1"></path><path fill="none" d="M 272.5 10 L 272.5 492" stroke="#E0E0E0" stroke-width="1"></path><path fill="none" d="M 288.5 10 L 288.5 492" stroke="#E0E0E0" stroke-width="1"></path><path fill="none" d="M 305.5 10 L 305.5 492" stroke="#E0E0E0" stroke-width="1"></path><path fill="none" d="M 321.5 10 L 321.5 492" stroke="#E0E0E0" stroke-width="1"></path><path fill="none" d="M 338.5 10 L 338.5 492" stroke="#E0E0E0" stroke-width="1"></path><path fill="none" d="M 354.5 10 L 354.5 492" stroke="#E0E0E0" stroke-width="1"></path><path fill="none" d="M 371.5 10 L 371.5 492" stroke="#E0E0E0" stroke-width="1"></path><path fill="none" d="M 387.5 10 L 387.5 492" stroke="#E0E0E0" stroke-width="1"></path><path fill="none" d="M 404.5 10 L 404.5 492" stroke="#E0E0E0" stroke-width="1"></path><path fill="none" d="M 420.5 10 L 420.5 492" stroke="#E0E0E0" stroke-width="1"></path><path fill="none" d="M 437.5 10 L 437.5 492" stroke="#E0E0E0" stroke-width="1"></path><path fill="none" d="M 453.5 10 L 453.5 492" stroke="#E0E0E0" stroke-width="1"></path><path fill="none" d="M 470.5 10 L 470.5 492" stroke="#E0E0E0" stroke-width="1"></path><path fill="none" d="M 486.5 10 L 486.5 492" stroke="#E0E0E0" stroke-width="1"></path><path fill="none" d="M 503.5 10 L 503.5 492" stroke="#E0E0E0" stroke-width="1"></path><path fill="none" d="M 519.5 10 L 519.5 492" stroke="#E0E0E0" stroke-width="1"></path><path fill="none" d="M 536.5 10 L 536.5 492" stroke="#E0E0E0" stroke-width="1"></path><path fill="none" d="M 552.5 10 L 552.5 492" stroke="#E0E0E0" stroke-width="1"></path><path fill="none" d="M 569.5 10 L 569.5 492" stroke="#E0E0E0" stroke-width="1"></path><path fill="none" d="M 585.5 10 L 585.5 492" stroke="#E0E0E0" stroke-width="1"></path><path fill="none" d="M 602.5 10 L 602.5 492" stroke="#E0E0E0" stroke-width="1"></path><path fill="none" d="M 618.5 10 L 618.5 492" stroke="#E0E0E0" stroke-width="1"></path><path fill="none" d="M 635.5 10 L 635.5 492" stroke="#E0E0E0" stroke-width="1"></path><path fill="none" d="M 651.5 10 L 651.5 492" stroke="#E0E0E0" stroke-width="1"></path><path fill="none" d="M 667.5 10 L 667.5 492" stroke="#E0E0E0" stroke-width="1"></path><path fill="none" d="M 684.5 10 L 684.5 492" stroke="#E0E0E0" stroke-width="1"></path><path fill="none" d="M 700.5 10 L 700.5 492" stroke="#E0E0E0" stroke-width="1"></path><path fill="none" d="M 717.5 10 L 717.5 492" stroke="#E0E0E0" stroke-width="1"></path><path fill="none" d="M 733.5 10 L 733.5 492" stroke="#E0E0E0" stroke-width="1"></path><path fill="none" d="M 750.5 10 L 750.5 492" stroke="#E0E0E0" stroke-width="1"></path><path fill="none" d="M 766.5 10 L 766.5 492" stroke="#E0E0E0" stroke-width="1"></path><path fill="none" d="M 783.5 10 L 783.5 492" stroke="#E0E0E0" stroke-width="1"></path><path fill="none" d="M 799.5 10 L 799.5 492" stroke="#E0E0E0" stroke-width="1"></path><path fill="none" d="M 816.5 10 L 816.5 492" stroke="#E0E0E0" stroke-width="1"></path><path fill="none" d="M 832.5 10 L 832.5 492" stroke="#E0E0E0" stroke-width="1"></path><path fill="none" d="M 849.5 10 L 849.5 492" stroke="#E0E0E0" stroke-width="1"></path><path fill="none" d="M 865.5 10 L 865.5 492" stroke="#E0E0E0" stroke-width="1"></path><path fill="none" d="M 882.5 10 L 882.5 492" stroke="#E0E0E0" stroke-width="1"></path><path fill="none" d="M 898.5 10 L 898.5 492" stroke="#E0E0E0" stroke-width="1"></path><path fill="none" d="M 915.5 10 L 915.5 492" stroke="#E0E0E0" stroke-width="1"></path><path fill="none" d="M 931.5 10 L 931.5 492" stroke="#E0E0E0" stroke-width="1"></path><path fill="none" d="M 948.5 10 L 948.5 492" stroke="#E0E0E0" stroke-width="1"></path><path fill="none" d="M 964.5 10 L 964.5 492" stroke="#E0E0E0" stroke-width="1"></path><path fill="none" d="M 981.5 10 L 981.5 492" stroke="#E0E0E0" stroke-width="1"></path><path fill="none" d="M 997.5 10 L 997.5 492" stroke="#E0E0E0" stroke-width="1"></path><path fill="none" d="M 1014.5 10 L 1014.5 492" stroke="#E0E0E0" stroke-width="1"></path><path fill="none" d="M 1030.5 10 L 1030.5 492" stroke="#E0E0E0" stroke-width="1"></path><path fill="none" d="M 1047.5 10 L 1047.5 492" stroke="#E0E0E0" stroke-width="1"></path><path fill="none" d="M 1063.5 10 L 1063.5 492" stroke="#E0E0E0" stroke-width="1"></path><path fill="none" d="M 1080.5 10 L 1080.5 492" stroke="#E0E0E0" stroke-width="1"></path><path fill="none" d="M 1096.5 10 L 1096.5 492" stroke="#E0E0E0" stroke-width="1"></path><path fill="none" d="M 1113.5 10 L 1113.5 492" stroke="#E0E0E0" stroke-width="1"></path><path fill="none" d="M 1129.5 10 L 1129.5 492" stroke="#E0E0E0" stroke-width="1"></path><path fill="none" d="M 1146.5 10 L 1146.5 492" stroke="#E0E0E0" stroke-width="1"></path><path fill="none" d="M 1162.5 10 L 1162.5 492" stroke="#E0E0E0" stroke-width="1"></path><path fill="none" d="M 1179.5 10 L 1179.5 492" stroke="#E0E0E0" stroke-width="1"></path><path fill="none" d="M 1195.5 10 L 1195.5 492" stroke="#E0E0E0" stroke-width="1"></path><path fill="none" d="M 1212.5 10 L 1212.5 492" stroke="#E0E0E0" stroke-width="1"></path><path fill="none" d="M 1228.5 10 L 1228.5 492" stroke="#E0E0E0" stroke-width="1"></path><path fill="none" d="M 156.5 10 L 156.5 492" stroke="#C0C0C0" stroke-width="1" ></path><path fill="none" d="M 239.5 10 L 239.5 492" stroke="#C0C0C0" stroke-width="1" ></path><path fill="none" d="M 321.5 10 L 321.5 492" stroke="#C0C0C0" stroke-width="1" ></path><path fill="none" d="M 404.5 10 L 404.5 492" stroke="#C0C0C0" stroke-width="1" ></path><path fill="none" d="M 486.5 10 L 486.5 492" stroke="#C0C0C0" stroke-width="1" ></path><path fill="none" d="M 569.5 10 L 569.5 492" stroke="#C0C0C0" stroke-width="1" ></path><path fill="none" d="M 651.5 10 L 651.5 492" stroke="#C0C0C0" stroke-width="1" ></path><path fill="none" d="M 733.5 10 L 733.5 492" stroke="#C0C0C0" stroke-width="1" ></path><path fill="none" d="M 816.5 10 L 816.5 492" stroke="#C0C0C0" stroke-width="1" ></path><path fill="none" d="M 898.5 10 L 898.5 492" stroke="#C0C0C0" stroke-width="1" ></path><path fill="none" d="M 981.5 10 L 981.5 492" stroke="#C0C0C0" stroke-width="1" ></path><path fill="none" d="M 1063.5 10 L 1063.5 492" stroke="#C0C0C0" stroke-width="1" ></path><path fill="none" d="M 1146.5 10 L 1146.5 492" stroke="#C0C0C0" stroke-width="1" ></path><path fill="none" d="M 1228.5 10 L 1228.5 492" stroke="#C0C0C0" stroke-width="1" ></path><path fill="none" d="M 74.5 10 L 74.5 492" stroke="#C0C0C0" stroke-width="1" ></path></g><g class="highcharts-grid" ></g><g class="highcharts-grid" ><path fill="none" d="M 63 492.5 L 1241 492.5" stroke="#E0E0E0" stroke-width="1"></path><path fill="none" d="M 63 478.5 L 1241 478.5" stroke="#E0E0E0" stroke-width="1"></path><path fill="none" d="M 63 464.5 L 1241 464.5" stroke="#E0E0E0" stroke-width="1"></path><path fill="none" d="M 63 451.5 L 1241 451.5" stroke="#E0E0E0" stroke-width="1"></path><path fill="none" d="M 63 437.5 L 1241 437.5" stroke="#E0E0E0" stroke-width="1"></path><path fill="none" d="M 63 423.5 L 1241 423.5" stroke="#E0E0E0" stroke-width="1"></path><path fill="none" d="M 63 409.5 L 1241 409.5" stroke="#E0E0E0" stroke-width="1"></path><path fill="none" d="M 63 396.5 L 1241 396.5" stroke="#E0E0E0" stroke-width="1"></path><path fill="none" d="M 63 382.5 L 1241 382.5" stroke="#E0E0E0" stroke-width="1"></path><path fill="none" d="M 63 368.5 L 1241 368.5" stroke="#E0E0E0" stroke-width="1"></path><path fill="none" d="M 63 354.5 L 1241 354.5" stroke="#E0E0E0" stroke-width="1"></path><path fill="none" d="M 63 341.5 L 1241 341.5" stroke="#E0E0E0" stroke-width="1"></path><path fill="none" d="M 63 327.5 L 1241 327.5" stroke="#E0E0E0" stroke-width="1"></path><path fill="none" d="M 63 313.5 L 1241 313.5" stroke="#E0E0E0" stroke-width="1"></path><path fill="none" d="M 63 299.5 L 1241 299.5" stroke="#E0E0E0" stroke-width="1"></path><path fill="none" d="M 63 285.5 L 1241 285.5" stroke="#E0E0E0" stroke-width="1"></path><path fill="none" d="M 63 272.5 L 1241 272.5" stroke="#E0E0E0" stroke-width="1"></path><path fill="none" d="M 63 258.5 L 1241 258.5" stroke="#E0E0E0" stroke-width="1"></path><path fill="none" d="M 63 244.5 L 1241 244.5" stroke="#E0E0E0" stroke-width="1"></path><path fill="none" d="M 63 230.5 L 1241 230.5" stroke="#E0E0E0" stroke-width="1"></path><path fill="none" d="M 63 217.5 L 1241 217.5" stroke="#E0E0E0" stroke-width="1"></path><path fill="none" d="M 63 203.5 L 1241 203.5" stroke="#E0E0E0" stroke-width="1"></path><path fill="none" d="M 63 189.5 L 1241 189.5" stroke="#E0E0E0" stroke-width="1"></path><path fill="none" d="M 63 175.5 L 1241 175.5" stroke="#E0E0E0" stroke-width="1"></path><path fill="none" d="M 63 161.5 L 1241 161.5" stroke="#E0E0E0" stroke-width="1"></path><path fill="none" d="M 63 148.5 L 1241 148.5" stroke="#E0E0E0" stroke-width="1"></path><path fill="none" d="M 63 134.5 L 1241 134.5" stroke="#E0E0E0" stroke-width="1"></path><path fill="none" d="M 63 120.5 L 1241 120.5" stroke="#E0E0E0" stroke-width="1"></path><path fill="none" d="M 63 106.5 L 1241 106.5" stroke="#E0E0E0" stroke-width="1"></path><path fill="none" d="M 63 93.5 L 1241 93.5" stroke="#E0E0E0" stroke-width="1"></path><path fill="none" d="M 63 79.5 L 1241 79.5" stroke="#E0E0E0" stroke-width="1"></path><path fill="none" d="M 63 65.5 L 1241 65.5" stroke="#E0E0E0" stroke-width="1"></path><path fill="none" d="M 63 51.5 L 1241 51.5" stroke="#E0E0E0" stroke-width="1"></path><path fill="none" d="M 63 38.5 L 1241 38.5" stroke="#E0E0E0" stroke-width="1"></path><path fill="none" d="M 63 24.5 L 1241 24.5" stroke="#E0E0E0" stroke-width="1"></path><path fill="none" d="M 63 10.5 L 1241 10.5" stroke="#E0E0E0" stroke-width="1"></path><path fill="none" d="M 63 423.5 L 1241 423.5" stroke="#C0C0C0" stroke-width="1" ></path><path fill="none" d="M 63 354.5 L 1241 354.5" stroke="#C0C0C0" stroke-width="1" ></path><path fill="none" d="M 63 285.5 L 1241 285.5" stroke="#C0C0C0" stroke-width="1" ></path><path fill="none" d="M 63 217.5 L 1241 217.5" stroke="#C0C0C0" stroke-width="1" ></path><path fill="none" d="M 63 148.5 L 1241 148.5" stroke="#C0C0C0" stroke-width="1" ></path><path fill="none" d="M 63 79.5 L 1241 79.5" stroke="#C0C0C0" stroke-width="1" ></path><path fill="none" d="M 63 10.5 L 1241 10.5" stroke="#C0C0C0" stroke-width="1" ></path><path fill="none" d="M 63 492.5 L 1241 492.5" stroke="#C0C0C0" stroke-width="1" ></path></g><g class="highcharts-axis" ><path fill="none" d="M 156.5 492 L 156.5 497" stroke="#C0D0E0" stroke-width="1"></path><path fill="none" d="M 239.5 492 L 239.5 497" stroke="#C0D0E0" stroke-width="1"></path><path fill="none" d="M 321.5 492 L 321.5 497" stroke="#C0D0E0" stroke-width="1"></path><path fill="none" d="M 404.5 492 L 404.5 497" stroke="#C0D0E0" stroke-width="1"></path><path fill="none" d="M 486.5 492 L 486.5 497" stroke="#C0D0E0" stroke-width="1"></path><path fill="none" d="M 569.5 492 L 569.5 497" stroke="#C0D0E0" stroke-width="1"></path><path fill="none" d="M 651.5 492 L 651.5 497" stroke="#C0D0E0" stroke-width="1"></path><path fill="none" d="M 733.5 492 L 733.5 497" stroke="#C0D0E0" stroke-width="1"></path><path fill="none" d="M 816.5 492 L 816.5 497" stroke="#C0D0E0" stroke-width="1"></path><path fill="none" d="M 898.5 492 L 898.5 497" stroke="#C0D0E0" stroke-width="1"></path><path fill="none" d="M 981.5 492 L 981.5 497" stroke="#C0D0E0" stroke-width="1"></path><path fill="none" d="M 1063.5 492 L 1063.5 497" stroke="#C0D0E0" stroke-width="1"></path><path fill="none" d="M 1146.5 492 L 1146.5 497" stroke="#C0D0E0" stroke-width="1"></path><path fill="none" d="M 1228.5 492 L 1228.5 497" stroke="#C0D0E0" stroke-width="1"></path><path fill="none" d="M 74.5 492 L 74.5 497" stroke="#C0D0E0" stroke-width="1"></path><path fill="none" d="M 63 492.5 L 1241 492.5" stroke="#C0D0E0" stroke-width="1"  visibility="visible"></path></g><g class="highcharts-axis" ></g><g class="highcharts-axis" ><text x="24" y="251" style="font-family:'lucida grande', 'lucida sans unicode', verdana, arial, helvetica, sans-serif;font-size:12px;color:#6d869f;font-weight:bold;fill:#6d869f;"  transform="rotate(270 24 251)" text-anchor="middle" visibility="visible"><tspan x="24">Dozens</tspan></text></g><g class="highcharts-series-group" ><g class="highcharts-series" visibility="hidden"  transform="translate(63,10)" clip-path="url(#highcharts-34)"><path fill="none" d="M 0 0" stroke="black" stroke-width="5"  stroke-dasharray="none"  stroke-opacity="0.049999999999999996" transform="translate(1, 1)"></path><path fill="none" d="M 0 0" stroke="black" stroke-width="3"  stroke-dasharray="none"  stroke-opacity="0.09999999999999999" transform="translate(1, 1)"></path><path fill="none" d="M 0 0" stroke="black" stroke-width="1"  stroke-dasharray="none"  stroke-opacity="0.15" transform="translate(1, 1)"></path><path fill="none" d="M 0 0" stroke="#000" stroke-width="2"  stroke-dasharray="none"></path></g><g class="highcharts-markers" visibility="hidden"  transform="translate(63,10)" clip-path="none"></g><g class="highcharts-series" visibility="hidden"  transform="translate(63,10)" clip-path="url(#highcharts-34)"><path fill="none" d="M 0 0" stroke="black" stroke-width="5"  stroke-dasharray="2,2"  stroke-opacity="0.049999999999999996" transform="translate(1, 1)"></path><path fill="none" d="M 0 0" stroke="black" stroke-width="3"  stroke-dasharray="2,2"  stroke-opacity="0.09999999999999999" transform="translate(1, 1)"></path><path fill="none" d="M 0 0" stroke="black" stroke-width="1"  stroke-dasharray="2,2"  stroke-opacity="0.15" transform="translate(1, 1)"></path><path fill="none" d="M 0 0" stroke="#000" stroke-width="2"  stroke-dasharray="2,2"></path></g><g class="highcharts-markers" visibility="hidden"  transform="translate(63,10)" clip-path="none"></g><g class="highcharts-series" visibility="visible"  transform="translate(63,10)" clip-path="url(#highcharts-34)"><path fill="none" d="M 0 0" stroke="black" stroke-width="5"  stroke-dasharray="6,2"  stroke-opacity="0.049999999999999996" transform="translate(1, 1)"></path><path fill="none" d="M 0 0" stroke="black" stroke-width="3"  stroke-dasharray="6,2"  stroke-opacity="0.09999999999999999" transform="translate(1, 1)"></path><path fill="none" d="M 0 0" stroke="black" stroke-width="1"  stroke-dasharray="6,2"  stroke-opacity="0.15" transform="translate(1, 1)"></path><path fill="none" d="M 0 0" stroke="#000" stroke-width="2"  stroke-dasharray="6,2"></path></g><g class="highcharts-markers" visibility="visible"  transform="translate(63,10)" clip-path="none"></g><g class="highcharts-series" visibility="visible"  transform="translate(63,10)" clip-path="url(#highcharts-34)"><path fill="none" d="M 11.549019607843137 68.9 L 32.17226890756302 68.9 L 52.79551820728291 68.9 L 73.4187675070028 68.9 L 94.04201680672269 68.9 L 114.66526610644257 72.3 L 135.28851540616245 72.3 L 155.91176470588235 75.7 L 176.53501400560222 82.6 L 197.15826330532212 72.3 L 217.781512605042 89.5 L 238.4047619047619 96.4 L 259.0280112044818 99.8 L 279.6512605042017 123.9 L 300.27450980392155 154.9 L 320.8977591036414 123.9 L 341.52100840336135 168.7 L 362.1442577030812 175.6 L 382.7675070028011 179 L 403.39075630252097 206.6 L 424.0140056022409 220.3 L 444.6372549019608 237.6 L 465.26050420168065 282.3 L 485.8837535014005 268.5 L 506.5070028011204 285.8 L 527.1302521008403 303 L 547.7535014005601 330.5 L 568.3767507002801 334 L 589 337.4 L 609.6232492997199 347.7 L 630.2464985994397 354.6 L 650.8697478991596 347.7 L 671.4929971988795 368.4 L 692.1162464985994 351.2 L 712.7394957983192 385.6 L 733.3627450980392 389 L 753.9859943977591 385.6 L 774.609243697479 389 L 795.2324929971988 392.5 L 815.8557422969187 399.4 L 836.4789915966386 402.8 L 857.1022408963585 402.8 L 877.7254901960783 399.4 L 898.3487394957983 409.7 L 918.9719887955182 409.7 L 939.5952380952381 409.7 L 960.218487394958 409.7 L 980.8417366946778 409.7 L 1001.4649859943977 409.7 L 1022.0882352941176 413.1 L 1042.7114845938374 406.3 L 1063.3347338935573 409.7 L 1083.9579831932772 409.7 L 1104.581232492997 382.2 L 1125.204481792717 409.7 L 1145.8277310924368 413.1 L 1166.450980392157 409.7" stroke="black" stroke-width="5"  stroke-dasharray="6,2"  stroke-opacity="0.049999999999999996" transform="translate(1, 1)"></path><path fill="none" d="M 11.549019607843137 68.9 L 32.17226890756302 68.9 L 52.79551820728291 68.9 L 73.4187675070028 68.9 L 94.04201680672269 68.9 L 114.66526610644257 72.3 L 135.28851540616245 72.3 L 155.91176470588235 75.7 L 176.53501400560222 82.6 L 197.15826330532212 72.3 L 217.781512605042 89.5 L 238.4047619047619 96.4 L 259.0280112044818 99.8 L 279.6512605042017 123.9 L 300.27450980392155 154.9 L 320.8977591036414 123.9 L 341.52100840336135 168.7 L 362.1442577030812 175.6 L 382.7675070028011 179 L 403.39075630252097 206.6 L 424.0140056022409 220.3 L 444.6372549019608 237.6 L 465.26050420168065 282.3 L 485.8837535014005 268.5 L 506.5070028011204 285.8 L 527.1302521008403 303 L 547.7535014005601 330.5 L 568.3767507002801 334 L 589 337.4 L 609.6232492997199 347.7 L 630.2464985994397 354.6 L 650.8697478991596 347.7 L 671.4929971988795 368.4 L 692.1162464985994 351.2 L 712.7394957983192 385.6 L 733.3627450980392 389 L 753.9859943977591 385.6 L 774.609243697479 389 L 795.2324929971988 392.5 L 815.8557422969187 399.4 L 836.4789915966386 402.8 L 857.1022408963585 402.8 L 877.7254901960783 399.4 L 898.3487394957983 409.7 L 918.9719887955182 409.7 L 939.5952380952381 409.7 L 960.218487394958 409.7 L 980.8417366946778 409.7 L 1001.4649859943977 409.7 L 1022.0882352941176 413.1 L 1042.7114845938374 406.3 L 1063.3347338935573 409.7 L 1083.9579831932772 409.7 L 1104.581232492997 382.2 L 1125.204481792717 409.7 L 1145.8277310924368 413.1 L 1166.450980392157 409.7" stroke="black" stroke-width="3"  stroke-dasharray="6,2"  stroke-opacity="0.09999999999999999" transform="translate(1, 1)"></path><path fill="none" d="M 11.549019607843137 68.9 L 32.17226890756302 68.9 L 52.79551820728291 68.9 L 73.4187675070028 68.9 L 94.04201680672269 68.9 L 114.66526610644257 72.3 L 135.28851540616245 72.3 L 155.91176470588235 75.7 L 176.53501400560222 82.6 L 197.15826330532212 72.3 L 217.781512605042 89.5 L 238.4047619047619 96.4 L 259.0280112044818 99.8 L 279.6512605042017 123.9 L 300.27450980392155 154.9 L 320.8977591036414 123.9 L 341.52100840336135 168.7 L 362.1442577030812 175.6 L 382.7675070028011 179 L 403.39075630252097 206.6 L 424.0140056022409 220.3 L 444.6372549019608 237.6 L 465.26050420168065 282.3 L 485.8837535014005 268.5 L 506.5070028011204 285.8 L 527.1302521008403 303 L 547.7535014005601 330.5 L 568.3767507002801 334 L 589 337.4 L 609.6232492997199 347.7 L 630.2464985994397 354.6 L 650.8697478991596 347.7 L 671.4929971988795 368.4 L 692.1162464985994 351.2 L 712.7394957983192 385.6 L 733.3627450980392 389 L 753.9859943977591 385.6 L 774.609243697479 389 L 795.2324929971988 392.5 L 815.8557422969187 399.4 L 836.4789915966386 402.8 L 857.1022408963585 402.8 L 877.7254901960783 399.4 L 898.3487394957983 409.7 L 918.9719887955182 409.7 L 939.5952380952381 409.7 L 960.218487394958 409.7 L 980.8417366946778 409.7 L 1001.4649859943977 409.7 L 1022.0882352941176 413.1 L 1042.7114845938374 406.3 L 1063.3347338935573 409.7 L 1083.9579831932772 409.7 L 1104.581232492997 382.2 L 1125.204481792717 409.7 L 1145.8277310924368 413.1 L 1166.450980392157 409.7" stroke="black" stroke-width="1"  stroke-dasharray="6,2"  stroke-opacity="0.15" transform="translate(1, 1)"></path><path fill="none" d="M 11.549019607843137 68.9 L 32.17226890756302 68.9 L 52.79551820728291 68.9 L 73.4187675070028 68.9 L 94.04201680672269 68.9 L 114.66526610644257 72.3 L 135.28851540616245 72.3 L 155.91176470588235 75.7 L 176.53501400560222 82.6 L 197.15826330532212 72.3 L 217.781512605042 89.5 L 238.4047619047619 96.4 L 259.0280112044818 99.8 L 279.6512605042017 123.9 L 300.27450980392155 154.9 L 320.8977591036414 123.9 L 341.52100840336135 168.7 L 362.1442577030812 175.6 L 382.7675070028011 179 L 403.39075630252097 206.6 L 424.0140056022409 220.3 L 444.6372549019608 237.6 L 465.26050420168065 282.3 L 485.8837535014005 268.5 L 506.5070028011204 285.8 L 527.1302521008403 303 L 547.7535014005601 330.5 L 568.3767507002801 334 L 589 337.4 L 609.6232492997199 347.7 L 630.2464985994397 354.6 L 650.8697478991596 347.7 L 671.4929971988795 368.4 L 692.1162464985994 351.2 L 712.7394957983192 385.6 L 733.3627450980392 389 L 753.9859943977591 385.6 L 774.609243697479 389 L 795.2324929971988 392.5 L 815.8557422969187 399.4 L 836.4789915966386 402.8 L 857.1022408963585 402.8 L 877.7254901960783 399.4 L 898.3487394957983 409.7 L 918.9719887955182 409.7 L 939.5952380952381 409.7 L 960.218487394958 409.7 L 980.8417366946778 409.7 L 1001.4649859943977 409.7 L 1022.0882352941176 413.1 L 1042.7114845938374 406.3 L 1063.3347338935573 409.7 L 1083.9579831932772 409.7 L 1104.581232492997 382.2 L 1125.204481792717 409.7 L 1145.8277310924368 413.1 L 1166.450980392157 409.7" stroke="#9A8867" stroke-width="2"  stroke-dasharray="6,2"></path></g><g class="highcharts-markers" visibility="visible"  transform="translate(63,10)" clip-path="none"><path fill="#9A8867" d="M 1166.450980392157 409.7 L 1166.450980392157 409.7 1166.450980392157 409.7 Z" stroke="#FFFFFF" stroke-width="1"></path><path fill="#9A8867" d="M 1145.8277310924368 413.1 L 1145.8277310924368 413.1 1145.8277310924368 413.1 Z" stroke="#FFFFFF" stroke-width="1"></path><path fill="#9A8867" d="M 1125.204481792717 409.7 L 1125.204481792717 409.7 1125.204481792717 409.7 Z" stroke="#FFFFFF" stroke-width="1"></path><path fill="#9A8867" d="M 1104.581232492997 382.2 L 1104.581232492997 382.2 1104.581232492997 382.2 Z" stroke="#FFFFFF" stroke-width="1"></path><path fill="#9A8867" d="M 1083.9579831932772 409.7 L 1083.9579831932772 409.7 1083.9579831932772 409.7 Z" stroke="#FFFFFF" stroke-width="1"></path><path fill="#9A8867" d="M 1063.3347338935573 409.7 L 1063.3347338935573 409.7 1063.3347338935573 409.7 Z" stroke="#FFFFFF" stroke-width="1"></path><path fill="#9A8867" d="M 1042.7114845938374 406.3 L 1042.7114845938374 406.3 1042.7114845938374 406.3 Z" stroke="#FFFFFF" stroke-width="1"></path><path fill="#9A8867" d="M 1022.0882352941176 413.1 L 1022.0882352941176 413.1 1022.0882352941176 413.1 Z" stroke="#FFFFFF" stroke-width="1"></path><path fill="#9A8867" d="M 1001.4649859943977 409.7 L 1001.4649859943977 409.7 1001.4649859943977 409.7 Z" stroke="#FFFFFF" stroke-width="1"></path><path fill="#9A8867" d="M 980.8417366946778 409.7 L 980.8417366946778 409.7 980.8417366946778 409.7 Z" stroke="#FFFFFF" stroke-width="1"></path><path fill="#9A8867" d="M 960.218487394958 409.7 L 960.218487394958 409.7 960.218487394958 409.7 Z" stroke="#FFFFFF" stroke-width="1"></path><path fill="#9A8867" d="M 939.5952380952381 409.7 L 939.5952380952381 409.7 939.5952380952381 409.7 Z" stroke="#FFFFFF" stroke-width="1"></path><path fill="#9A8867" d="M 918.9719887955182 409.7 L 918.9719887955182 409.7 918.9719887955182 409.7 Z" stroke="#FFFFFF" stroke-width="1"></path><path fill="#9A8867" d="M 898.3487394957983 409.7 L 898.3487394957983 409.7 898.3487394957983 409.7 Z" stroke="#FFFFFF" stroke-width="1"></path><path fill="#9A8867" d="M 877.7254901960783 399.4 L 877.7254901960783 399.4 877.7254901960783 399.4 Z" stroke="#FFFFFF" stroke-width="1"></path><path fill="#9A8867" d="M 857.1022408963585 402.8 L 857.1022408963585 402.8 857.1022408963585 402.8 Z" stroke="#FFFFFF" stroke-width="1"></path><path fill="#9A8867" d="M 836.4789915966386 402.8 L 836.4789915966386 402.8 836.4789915966386 402.8 Z" stroke="#FFFFFF" stroke-width="1"></path><path fill="#9A8867" d="M 815.8557422969187 399.4 L 815.8557422969187 399.4 815.8557422969187 399.4 Z" stroke="#FFFFFF" stroke-width="1"></path><path fill="#9A8867" d="M 795.2324929971988 392.5 L 795.2324929971988 392.5 795.2324929971988 392.5 Z" stroke="#FFFFFF" stroke-width="1"></path><path fill="#9A8867" d="M 774.609243697479 389 L 774.609243697479 389 774.609243697479 389 Z" stroke="#FFFFFF" stroke-width="1"></path><path fill="#9A8867" d="M 753.9859943977591 385.6 L 753.9859943977591 385.6 753.9859943977591 385.6 Z" stroke="#FFFFFF" stroke-width="1"></path><path fill="#9A8867" d="M 733.3627450980392 389 L 733.3627450980392 389 733.3627450980392 389 Z" stroke="#FFFFFF" stroke-width="1"></path><path fill="#9A8867" d="M 712.7394957983192 385.6 L 712.7394957983192 385.6 712.7394957983192 385.6 Z" stroke="#FFFFFF" stroke-width="1"></path><path fill="#9A8867" d="M 692.1162464985994 351.2 L 692.1162464985994 351.2 692.1162464985994 351.2 Z" stroke="#FFFFFF" stroke-width="1"></path><path fill="#9A8867" d="M 671.4929971988795 368.4 L 671.4929971988795 368.4 671.4929971988795 368.4 Z" stroke="#FFFFFF" stroke-width="1"></path><path fill="#9A8867" d="M 650.8697478991596 347.7 L 650.8697478991596 347.7 650.8697478991596 347.7 Z" stroke="#FFFFFF" stroke-width="1"></path><path fill="#9A8867" d="M 630.2464985994397 354.6 L 630.2464985994397 354.6 630.2464985994397 354.6 Z" stroke="#FFFFFF" stroke-width="1"></path><path fill="#9A8867" d="M 609.6232492997199 347.7 L 609.6232492997199 347.7 609.6232492997199 347.7 Z" stroke="#FFFFFF" stroke-width="1"></path><path fill="#9A8867" d="M 589 337.4 L 589 337.4 589 337.4 Z" stroke="#FFFFFF" stroke-width="1"></path><path fill="#9A8867" d="M 568.3767507002801 334 L 568.3767507002801 334 568.3767507002801 334 Z" stroke="#FFFFFF" stroke-width="1"></path><path fill="#9A8867" d="M 547.7535014005601 330.5 L 547.7535014005601 330.5 547.7535014005601 330.5 Z" stroke="#FFFFFF" stroke-width="1"></path><path fill="#9A8867" d="M 527.1302521008403 303 L 527.1302521008403 303 527.1302521008403 303 Z" stroke="#FFFFFF" stroke-width="1"></path><path fill="#9A8867" d="M 506.5070028011204 285.8 L 506.5070028011204 285.8 506.5070028011204 285.8 Z" stroke="#FFFFFF" stroke-width="1"></path><path fill="#9A8867" d="M 485.8837535014005 268.5 L 485.8837535014005 268.5 485.8837535014005 268.5 Z" stroke="#FFFFFF" stroke-width="1"></path><path fill="#9A8867" d="M 465.26050420168065 282.3 L 465.26050420168065 282.3 465.26050420168065 282.3 Z" stroke="#FFFFFF" stroke-width="1"></path><path fill="#9A8867" d="M 444.6372549019608 237.6 L 444.6372549019608 237.6 444.6372549019608 237.6 Z" stroke="#FFFFFF" stroke-width="1"></path><path fill="#9A8867" d="M 424.0140056022409 220.3 L 424.0140056022409 220.3 424.0140056022409 220.3 Z" stroke="#FFFFFF" stroke-width="1"></path><path fill="#9A8867" d="M 403.39075630252097 206.6 L 403.39075630252097 206.6 403.39075630252097 206.6 Z" stroke="#FFFFFF" stroke-width="1"></path><path fill="#9A8867" d="M 382.7675070028011 179 L 382.7675070028011 179 382.7675070028011 179 Z" stroke="#FFFFFF" stroke-width="1"></path><path fill="#9A8867" d="M 362.1442577030812 175.6 L 362.1442577030812 175.6 362.1442577030812 175.6 Z" stroke="#FFFFFF" stroke-width="1"></path><path fill="#9A8867" d="M 341.52100840336135 168.7 L 341.52100840336135 168.7 341.52100840336135 168.7 Z" stroke="#FFFFFF" stroke-width="1"></path><path fill="#9A8867" d="M 320.8977591036414 123.9 L 320.8977591036414 123.9 320.8977591036414 123.9 Z" stroke="#FFFFFF" stroke-width="1"></path><path fill="#9A8867" d="M 300.27450980392155 154.9 L 300.27450980392155 154.9 300.27450980392155 154.9 Z" stroke="#FFFFFF" stroke-width="1"></path><path fill="#9A8867" d="M 279.6512605042017 123.9 L 279.6512605042017 123.9 279.6512605042017 123.9 Z" stroke="#FFFFFF" stroke-width="1"></path><path fill="#9A8867" d="M 259.0280112044818 99.8 L 259.0280112044818 99.8 259.0280112044818 99.8 Z" stroke="#FFFFFF" stroke-width="1"></path><path fill="#9A8867" d="M 238.4047619047619 96.4 L 238.4047619047619 96.4 238.4047619047619 96.4 Z" stroke="#FFFFFF" stroke-width="1"></path><path fill="#9A8867" d="M 217.781512605042 89.5 L 217.781512605042 89.5 217.781512605042 89.5 Z" stroke="#FFFFFF" stroke-width="1"></path><path fill="#9A8867" d="M 197.15826330532212 72.3 L 197.15826330532212 72.3 197.15826330532212 72.3 Z" stroke="#FFFFFF" stroke-width="1"></path><path fill="#9A8867" d="M 176.53501400560222 82.6 L 176.53501400560222 82.6 176.53501400560222 82.6 Z" stroke="#FFFFFF" stroke-width="1"></path><path fill="#9A8867" d="M 155.91176470588235 75.7 L 155.91176470588235 75.7 155.91176470588235 75.7 Z" stroke="#FFFFFF" stroke-width="1"></path><path fill="#9A8867" d="M 135.28851540616245 72.3 L 135.28851540616245 72.3 135.28851540616245 72.3 Z" stroke="#FFFFFF" stroke-width="1"></path><path fill="#9A8867" d="M 114.66526610644257 72.3 L 114.66526610644257 72.3 114.66526610644257 72.3 Z" stroke="#FFFFFF" stroke-width="1"></path><path fill="#9A8867" d="M 94.04201680672269 68.9 L 94.04201680672269 68.9 94.04201680672269 68.9 Z" stroke="#FFFFFF" stroke-width="1"></path><path fill="#9A8867" d="M 73.4187675070028 68.9 L 73.4187675070028 68.9 73.4187675070028 68.9 Z" stroke="#FFFFFF" stroke-width="1"></path><path fill="#9A8867" d="M 52.79551820728291 68.9 L 52.79551820728291 68.9 52.79551820728291 68.9 Z" stroke="#FFFFFF" stroke-width="1"></path><path fill="#9A8867" d="M 32.17226890756302 68.9 L 32.17226890756302 68.9 32.17226890756302 68.9 Z" stroke="#FFFFFF" stroke-width="1"></path><path fill="#9A8867" d="M 11.549019607843137 68.9 L 11.549019607843137 68.9 11.549019607843137 68.9 Z" stroke="#FFFFFF" stroke-width="1"></path></g></g><g class="highcharts-legend"  transform="translate(322,515)"><rect rx="5" ry="5" fill="white" x="0.5" y="0.5" width="607" height="24" stroke-width="1" stroke="#909090" visibility="visible"></rect><g  clip-path="url(#highcharts-33)"><g><g class="highcharts-legend-item"  transform="translate(8,3)"><path fill="none" d="M 0 11 L 60 11" stroke-width="2" stroke-dasharray="none" stroke="#CCC"></path><path fill="#CCC" d="M 30 11 L 30 11 30 11 Z" stroke="#CCC"></path><text x="65" y="15" style="font-family:'lucida grande', 'lucida sans unicode', verdana, arial, helvetica, sans-serif;font-size:12px;cursor:pointer;color:#ccc;fill:#ccc;" text-anchor="start" ><tspan x="65">Dozens</tspan></text></g><g class="highcharts-legend-item"  transform="translate(208,3)"><path fill="none" d="M 0 11 L 60 11" stroke-width="2" stroke-dasharray="2,2" stroke="#CCC"></path><path fill="#CCC" d="M 30 11 L 30 11 30 11 Z" stroke="#CCC"></path><text x="65" y="15" style="font-family:'lucida grande', 'lucida sans unicode', verdana, arial, helvetica, sans-serif;font-size:12px;cursor:pointer;color:#ccc;fill:#ccc;" text-anchor="start" ><tspan x="65">Slots</tspan></text></g><g class="highcharts-legend-item"  transform="translate(408,3)"><path fill="none" d="M 0 11 L 60 11" stroke-width="2" stroke-dasharray="6,2" stroke="#000"></path><path fill="#000" d="M 30 11 L 30 11 30 11 Z" stroke="#000"></path><text x="65" y="15" style="font-family:'lucida grande', 'lucida sans unicode', verdana, arial, helvetica, sans-serif;font-size:12px;cursor:pointer;color:#3e576f;fill:#3e576f;" text-anchor="start" ><tspan x="65">Deadlock</tspan></text></g></g></g></g><g class="highcharts-axis-labels" ><text x="74.54901960784314" y="506" style="font-family:'lucida grande', 'lucida sans unicode', verdana, arial, helvetica, sans-serif;font-size:11px;color:#666;line-height:14px;fill:#666;" text-anchor="middle" visibility="visible"><tspan x="74.54901960784314">100</tspan></text><text x="157.0420168067227" y="506" style="font-family:'lucida grande', 'lucida sans unicode', verdana, arial, helvetica, sans-serif;font-size:11px;color:#666;line-height:14px;fill:#666;" text-anchor="middle" visibility="visible"><tspan x="157.0420168067227">200</tspan></text><text x="239.53501400560222" y="506" style="font-family:'lucida grande', 'lucida sans unicode', verdana, arial, helvetica, sans-serif;font-size:11px;color:#666;line-height:14px;fill:#666;" text-anchor="middle" visibility="visible"><tspan x="239.53501400560222">300</tspan></text><text x="322.0280112044818" y="506" style="font-family:'lucida grande', 'lucida sans unicode', verdana, arial, helvetica, sans-serif;font-size:11px;color:#666;line-height:14px;fill:#666;" text-anchor="middle" visibility="visible"><tspan x="322.0280112044818">400</tspan></text><text x="404.52100840336135" y="506" style="font-family:'lucida grande', 'lucida sans unicode', verdana, arial, helvetica, sans-serif;font-size:11px;color:#666;line-height:14px;fill:#666;" text-anchor="middle" visibility="visible"><tspan x="404.52100840336135">500</tspan></text><text x="487.0140056022409" y="506" style="font-family:'lucida grande', 'lucida sans unicode', verdana, arial, helvetica, sans-serif;font-size:11px;color:#666;line-height:14px;fill:#666;" text-anchor="middle" visibility="visible"><tspan x="487.0140056022409">600</tspan></text><text x="569.5070028011204" y="506" style="font-family:'lucida grande', 'lucida sans unicode', verdana, arial, helvetica, sans-serif;font-size:11px;color:#666;line-height:14px;fill:#666;" text-anchor="middle" visibility="visible"><tspan x="569.5070028011204">700</tspan></text><text x="652" y="506" style="font-family:'lucida grande', 'lucida sans unicode', verdana, arial, helvetica, sans-serif;font-size:11px;color:#666;line-height:14px;fill:#666;" text-anchor="middle" visibility="visible"><tspan x="652">800</tspan></text><text x="734.4929971988795" y="506" style="font-family:'lucida grande', 'lucida sans unicode', verdana, arial, helvetica, sans-serif;font-size:11px;color:#666;line-height:14px;fill:#666;" text-anchor="middle" visibility="visible"><tspan x="734.4929971988795">900</tspan></text><text x="816.9859943977591" y="506" style="font-family:'lucida grande', 'lucida sans unicode', verdana, arial, helvetica, sans-serif;font-size:11px;color:#666;line-height:14px;fill:#666;" text-anchor="middle" visibility="visible"><tspan x="816.9859943977591">1,000</tspan></text><text x="899.4789915966386" y="506" style="font-family:'lucida grande', 'lucida sans unicode', verdana, arial, helvetica, sans-serif;font-size:11px;color:#666;line-height:14px;fill:#666;" text-anchor="middle" visibility="visible"><tspan x="899.4789915966386">1,100</tspan></text><text x="981.9719887955182" y="506" style="font-family:'lucida grande', 'lucida sans unicode', verdana, arial, helvetica, sans-serif;font-size:11px;color:#666;line-height:14px;fill:#666;" text-anchor="middle" visibility="visible"><tspan x="981.9719887955182">1,200</tspan></text><text x="1064.4649859943977" y="506" style="font-family:'lucida grande', 'lucida sans unicode', verdana, arial, helvetica, sans-serif;font-size:11px;color:#666;line-height:14px;fill:#666;" text-anchor="middle" visibility="visible"><tspan x="1064.4649859943977">1,300</tspan></text><text x="1146.9579831932772" y="506" style="font-family:'lucida grande', 'lucida sans unicode', verdana, arial, helvetica, sans-serif;font-size:11px;color:#666;line-height:14px;fill:#666;" text-anchor="middle" visibility="visible"><tspan x="1146.9579831932772">1,400</tspan></text><text x="1229.450980392157" y="506" style="font-family:'lucida grande', 'lucida sans unicode', verdana, arial, helvetica, sans-serif;font-size:11px;color:#666;line-height:14px;fill:#666;" text-anchor="middle" visibility="visible"><tspan x="1229.450980392157">1,500</tspan></text></g><g class="highcharts-axis-labels" ></g><g class="highcharts-axis-labels" ><text x="55" y="429.24285714285713" style="font-family:'lucida grande', 'lucida sans unicode', verdana, arial, helvetica, sans-serif;font-size:11px;width:569px;color:#666;line-height:14px;fill:#666;" text-anchor="end" visibility="visible"><tspan x="55">0</tspan></text><text x="55" y="360.3857142857143" style="font-family:'lucida grande', 'lucida sans unicode', verdana, arial, helvetica, sans-serif;font-size:11px;width:569px;color:#666;line-height:14px;fill:#666;" text-anchor="end" visibility="visible"><tspan x="55">20</tspan></text><text x="55" y="291.52857142857147" style="font-family:'lucida grande', 'lucida sans unicode', verdana, arial, helvetica, sans-serif;font-size:11px;width:569px;color:#666;line-height:14px;fill:#666;" text-anchor="end" visibility="visible"><tspan x="55">40</tspan></text><text x="55" y="222.67142857142855" style="font-family:'lucida grande', 'lucida sans unicode', verdana, arial, helvetica, sans-serif;font-size:11px;width:569px;color:#666;line-height:14px;fill:#666;" text-anchor="end" visibility="visible"><tspan x="55">60</tspan></text><text x="55" y="153.81428571428566" style="font-family:'lucida grande', 'lucida sans unicode', verdana, arial, helvetica, sans-serif;font-size:11px;width:569px;color:#666;line-height:14px;fill:#666;" text-anchor="end" visibility="visible"><tspan x="55">80</tspan></text><text x="55" y="84.95714285714283" style="font-family:'lucida grande', 'lucida sans unicode', verdana, arial, helvetica, sans-serif;font-size:11px;width:569px;color:#666;line-height:14px;fill:#666;" text-anchor="end" visibility="visible"><tspan x="55">100</tspan></text><text x="55" y="498.1" style="font-family:'lucida grande', 'lucida sans unicode', verdana, arial, helvetica, sans-serif;font-size:11px;width:569px;color:#666;line-height:14px;fill:#666;" text-anchor="end" visibility="visible"><tspan x="55">-20</tspan></text><text x="55" y="16.1" style="font-family:'lucida grande', 'lucida sans unicode', verdana, arial, helvetica, sans-serif;font-size:11px;width:569px;color:#666;line-height:14px;fill:#666;" text-anchor="end" visibility="visible"><tspan x="55">120</tspan></text></g><g class="highcharts-tooltip"  style="padding:0;white-space:nowrap;" visibility="hidden"><rect rx="5" ry="5" fill="none" x="0" y="0" width="10" height="10" stroke-width="5" fill-opacity="0.85"  stroke="black" stroke-opacity="0.049999999999999996" transform="translate(1, 1)"></rect><rect rx="5" ry="5" fill="none" x="0" y="0" width="10" height="10" stroke-width="3" fill-opacity="0.85"  stroke="black" stroke-opacity="0.09999999999999999" transform="translate(1, 1)"></rect><rect rx="5" ry="5" fill="none" x="0" y="0" width="10" height="10" stroke-width="1" fill-opacity="0.85"  stroke="black" stroke-opacity="0.15" transform="translate(1, 1)"></rect><rect rx="5" ry="5" fill="rgb(255,255,255)" x="0" y="0" width="10" height="10" stroke-width="2" fill-opacity="0.85"></rect><text x="5" y="18" style="font-family:'lucida grande', 'lucida sans unicode', verdana, arial, helvetica, sans-serif;font-size:12px;color:#333333;fill:#333333;" ></text></g><g class="highcharts-tracker" ><g visibility="visible"  transform="translate(63,10)" clip-path="url(#highcharts-34)"><path fill="none" d="M 0 0"  stroke-linejoin="bevel" visibility="hidden" stroke-opacity="0.000001" stroke="rgb(192,192,192)" stroke-width="22" style=""></path></g><g visibility="visible"  transform="translate(63,10)" clip-path="url(#highcharts-34)"><path fill="none" d="M 0 0"  stroke-linejoin="bevel" visibility="hidden" stroke-opacity="0.000001" stroke="rgb(192,192,192)" stroke-width="22" style=""></path></g><g visibility="visible"  transform="translate(63,10)" clip-path="url(#highcharts-34)"><path fill="none" d="M 0 0"  stroke-linejoin="bevel" visibility="visible" stroke-opacity="0.000001" stroke="rgb(192,192,192)" stroke-width="22" style=""></path></g><g visibility="visible"  transform="translate(63,10)" clip-path="url(#highcharts-34)"><path fill="none" d="M 1.549019607843137 68.9 L 11.549019607843137 68.9 L 32.17226890756302 68.9 L 52.79551820728291 68.9 L 73.4187675070028 68.9 L 94.04201680672269 68.9 L 114.66526610644257 72.3 L 135.28851540616245 72.3 L 155.91176470588235 75.7 L 176.53501400560222 82.6 L 197.15826330532212 72.3 L 217.781512605042 89.5 L 238.4047619047619 96.4 L 259.0280112044818 99.8 L 279.6512605042017 123.9 L 300.27450980392155 154.9 L 320.8977591036414 123.9 L 341.52100840336135 168.7 L 362.1442577030812 175.6 L 382.7675070028011 179 L 403.39075630252097 206.6 L 424.0140056022409 220.3 L 444.6372549019608 237.6 L 465.26050420168065 282.3 L 485.8837535014005 268.5 L 506.5070028011204 285.8 L 527.1302521008403 303 L 547.7535014005601 330.5 L 568.3767507002801 334 L 589 337.4 L 609.6232492997199 347.7 L 630.2464985994397 354.6 L 650.8697478991596 347.7 L 671.4929971988795 368.4 L 692.1162464985994 351.2 L 712.7394957983192 385.6 L 733.3627450980392 389 L 753.9859943977591 385.6 L 774.609243697479 389 L 795.2324929971988 392.5 L 815.8557422969187 399.4 L 836.4789915966386 402.8 L 857.1022408963585 402.8 L 877.7254901960783 399.4 L 898.3487394957983 409.7 L 918.9719887955182 409.7 L 939.5952380952381 409.7 L 960.218487394958 409.7 L 980.8417366946778 409.7 L 1001.4649859943977 409.7 L 1022.0882352941176 413.1 L 1042.7114845938374 406.3 L 1063.3347338935573 409.7 L 1083.9579831932772 409.7 L 1104.581232492997 382.2 L 1125.204481792717 409.7 L 1145.8277310924368 413.1 L 1166.450980392157 409.7 L 1176.450980392157 409.7"  stroke-linejoin="bevel" visibility="visible" stroke-opacity="0.000001" stroke="rgb(192,192,192)" stroke-width="22" style=""></path></g></g></svg>